Coordinates
version=1
nRows=11
nColumns=42
inDegrees=yes

Units are S.I. units (second, meters, Newtons, ...)
If the header above contains a line with 'inDegrees', this indicates whether rotational values are in degrees (yes) or radians (no).

endheader
time	pelvis_tilt	pelvis_list	pelvis_rotation	pelvis_tx	pelvis_ty	pelvis_tz	hip_flexion_r	hip_adduction_r	hip_rotation_r	knee_angle_r	knee_adduction_r	knee_angle_r_beta	ankle_angle_r	subtalar_angle_r	mtp_angle_r	hip_flexion_l	hip_adduction_l	hip_rotation_l	knee_angle_l	knee_adduction_l	knee_angle_l_beta	ankle_angle_l	subtalar_angle_l	mtp_angle_l	lumbar_extension	lumbar_bending	lumbar_rotation	arm_flex_r	arm_add_r	arm_rot_r	elbow_flex_r	pro_sup_r	wrist_flex_r	wrist_dev_r	arm_flex_l	arm_add_l	arm_rot_l	elbow_flex_l	pro_sup_l	wrist_flex_l	wrist_dev_l
      2.10000000	     14.72453259	     -1.61256338	      1.35017742	      1.15736591	      0.84627539	     -0.19268668	     13.33247944	      2.21412776	    -11.50329730	     25.46864848	     -2.92974833	      0.44451177	     14.49304790	    -14.03778842	     -7.50045487	    -25.59178178	     -1.32150114	    -19.22771556	      7.29756195	      4.75560895	      0.12736648	     23.23117443	      8.18349918	     -7.50045487	    -28.59623697	      2.03810974	     -0.29058374	     -9.59132129	     -3.92018871	    -10.25781014	     27.80028910	     90.00000001	      0.00000000	      0.00000000	     25.59580232	    -11.92528021	      2.71298654	     48.20048829	     90.00000001	      0.00000000	      0.00000000
      2.11000000	     14.73162358	     -1.47000464	      1.80302000	      1.16845636	      0.84461975	     -0.19248971	     13.41362040	      1.93421728	    -12.68153316	     22.74509675	     -2.81394879	      0.39697683	     14.40813685	    -12.55461510	     -7.50044331	    -26.36617139	     -1.46347862	    -19.09557762	      7.43674176	      4.77373390	      0.12979563	     23.54199919	      8.42665822	     -7.50044331	    -28.54527421	      2.01847219	     -0.52808527	    -10.15804405	     -3.75117527	    -10.37685612	     27.85151852	     90.00000001	      0.00000000	      0.00000000	     26.42651621	    -11.95092354	      3.11623964	     48.89576952	     90.00000001	      0.00000000	      0.00000000
      2.12000000	     14.73511826	     -1.23437472	      2.21039244	      1.17972688	      0.84288982	     -0.19228866	     13.67057285	      1.41271509	    -14.91797327	     20.68050299	     -2.87224922	      0.36094287	     15.14897800	     -8.37600571	     -7.50040357	    -27.09166657	     -1.47547304	    -19.16572858	      7.67318557	      4.66722663	      0.13392235	     23.82356697	      8.91395302	     -7.50040357	    -28.48169306	      1.89123293	     -0.71684197	    -10.74574590	     -3.51722223	    -10.86875237	     28.11269188	     90.00000001	      0.00000000	      0.00000000	     27.01997247	    -12.30088544	      4.56833534	     50.06643235	     90.00000001	      0.00000000	      0.00000000
      2.13000000	     14.63790179	     -1.05874307	      2.62992393	      1.19092336	      0.84123940	     -0.19199235	     13.80221983	      1.08602387	    -15.91100618	     18.58993094	     -2.68759737	      0.32445550	     14.91632331	     -7.29306778	     -7.50039530	    -27.64102711	     -1.55888311	    -18.96881640	      8.00653426	      4.51994271	      0.13974038	     24.00452734	      9.01259056	     -7.50039530	    -28.30924284	      1.82756958	     -0.92356666	    -11.11945740	     -3.36476743	    -10.91137163	     28.01259178	     90.00000001	      0.00000000	      0.00000000	     27.74568451	    -12.18146642	      4.66228291	     50.47435535	     90.00000001	      0.00000000	      0.00000000
      2.14000000	     14.53403351	     -0.87192682	      3.03336151	      1.20231778	      0.83961290	     -0.19165298	     14.10801056	      0.59485115	    -18.14663915	     17.20308934	     -2.67734473	      0.30025055	     15.45016983	     -2.98370171	     -7.50035986	    -28.11471644	     -1.66743702	    -19.06144106	      8.50912312	      4.33264117	      0.14851221	     24.19413983	      9.48211377	     -7.50035986	    -28.12966171	      1.75385406	     -1.14414077	    -11.44740689	     -3.14696488	    -11.30539183	     27.88421668	     90.00000001	      0.00000000	      0.00000000	     28.25808751	    -12.25612218	      5.25046676	     51.20859072	     90.00000001	      0.00000000	      0.00000000
      2.15000000	     14.36640176	     -0.71384116	      3.41616097	      1.21369595	      0.83809986	     -0.19125448	     14.24867758	      0.29392004	    -18.89067635	     15.87046013	     -2.48984213	      0.27699178	     15.15772135	     -2.03018054	     -7.50035160	    -28.47092981	     -1.76387489	    -18.80838450	      9.07385149	      4.05658118	      0.15836858	     24.22274460	      9.53461481	     -7.50035160	    -27.87826117	      1.71998626	     -1.32672791	    -11.70885171	     -3.04254817	    -11.37503291	     27.79038358	     90.00000001	      0.00000000	      0.00000000	     28.72740385	    -12.08724808	      5.33377846	     51.55622918	     90.00000001	      0.00000000	      0.00000000
      2.16000000	     14.17853189	     -0.58660151	      3.79288885	      1.22521295	      0.83670601	     -0.19081669	     14.40156360	      0.00658662	    -19.70642921	     14.98611268	     -2.35998246	      0.26155701	     14.91481606	     -0.98435139	     -7.50034320	    -28.73573922	     -1.90810715	    -18.64905185	      9.78064072	      3.73455380	      0.17070438	     24.17661716	      9.66856255	     -7.50034320	    -27.60452673	      1.71627054	     -1.49604282	    -11.90415994	     -2.94514644	    -11.46720844	     27.65103668	     90.00000001	      0.00000000	      0.00000000	     29.06841411	    -11.95383187	      5.42424050	     51.94535547	     90.00000001	      0.00000000	      0.00000000
      2.17000000	     13.87209505	     -0.43254131	      4.06764932	      1.23690874	      0.83531198	     -0.19032189	     14.67298903	     -0.31072798	    -20.16447736	     14.55735679	     -2.22455606	      0.25407381	     14.81068977	     -0.77948807	     -7.50034027	    -28.86729962	     -1.91037856	    -18.41602452	     10.44634479	      3.26463309	      0.18232311	     24.07344714	      9.71889318	     -7.50034027	    -27.18014613	      1.65194719	     -1.59537930	    -12.13171478	     -2.88261221	    -11.49009350	     27.58014168	     90.00000001	      0.00000000	      0.00000000	     29.26937165	    -11.73517107	      5.47656873	     52.17974926	     90.00000001	      0.00000000	      0.00000000
      2.18000000	     13.74211321	     -0.46245762	      4.43835482	      1.24882359	      0.83424700	     -0.18967504	     14.75777271	     -0.42899074	    -21.39879675	     14.55967381	     -2.31341624	      0.25411425	     14.39001711	      0.59574397	     -7.50032497	    -29.02703203	     -2.32575393	    -18.66675327	     11.53439167	      2.91745669	      0.20131311	     23.94022686	     10.11278714	     -7.50032497	    -26.94334382	      1.82801497	     -1.78167876	    -12.04291091	     -2.80470329	    -11.73139083	     27.21291164	     90.00000001	      0.00000000	      0.00000000	     29.25090447	    -11.69600834	      5.51188595	     52.75620624	     90.00000001	      0.00000000	      0.00000000
      2.19000000	     13.46420827	     -0.43368164	      4.65152643	      1.26090292	      0.83320527	     -0.18893983	     14.86249978	     -0.50653099	    -21.45978623	     14.69631035	     -2.32069646	      0.25649900	     14.31800070	      0.61617100	     -7.50032279	    -29.12686086	     -2.41865467	    -18.25903147	     12.31228864	      2.37842956	      0.21488998	     23.79193934	     10.17351833	     -7.50032279	    -26.53902551	      1.89516240	     -1.80158244	    -12.15552516	     -2.80708673	    -11.75079298	     27.20453096	     90.00000001	      0.00000000	      0.00000000	     29.13533159	    -11.51858575	      5.54755899	     52.82033592	     90.00000001	      0.00000000	      0.00000000
      2.20000000	     13.35700158	     -0.48478276	      4.94009539	      1.27317678	      0.83248436	     -0.18807467	     14.84382797	     -0.56226612	    -22.51388133	     15.31576628	     -2.51276798	      0.26731055	     13.79556919	      0.41360482	     -7.50031281	    -29.20523158	     -2.80753095	    -18.32518935	     13.59857279	      1.93559893	      0.23733987	     23.31436703	     10.19671889	     -7.50031281	    -26.29447600	      2.05654110	     -1.89466894	    -12.04110729	     -2.76081666	    -11.91323385	     26.95796262	     90.00000001	      0.00000000	      0.00000000	     29.00344018	    -11.38701725	      5.43363654	     53.10159855	     90.00000001	      0.00000000	      0.00000000
